<svg width="402" height="163" viewBox="0 0 402 163" fill="none" xmlns="http://www.w3.org/2000/svg">
<path d="M78.6724 144.997C70.5057 152.346 60.2974 156.088 49.6807 156.088C26.4056 156.088 7.35002 137.247 7.35002 114.129C7.35002 91.0123 26.4056 72.1711 49.6807 72.1711C60.2974 72.1711 70.0974 75.9126 78.2641 82.8611L82.4836 77.5161C73.228 69.6322 61.7946 65.3562 49.6807 65.3562C22.3223 65.3562 0 87.2708 0 114.129C0 140.988 22.3223 162.903 49.6807 162.903C61.7946 162.903 73.5002 158.627 82.8919 150.342L78.6724 144.997ZM70.3696 134.44C63.5641 140.053 57.1668 142.458 49.6807 142.458C34.4362 142.458 22.0501 130.298 22.0501 114.129C22.0501 97.9608 34.4362 85.8009 49.6807 85.8009C57.0307 85.8009 63.1557 88.0725 69.9613 93.4175L74.1807 88.0725C67.103 82.193 58.8002 78.986 49.6807 78.986C30.489 78.986 14.7 94.8874 14.7 114.129C14.7 133.371 30.489 149.273 49.6807 149.273C58.8002 149.273 67.5113 146.066 74.5891 139.785L70.3696 134.44Z" fill="#CCFF00"/>
<path d="M174.409 161.566L130.173 65.3562H128.948L84.7114 161.566H92.0614L129.356 80.4558L166.65 161.566H174.409ZM110.3 137.915H148.003L129.22 96.8918L110.3 137.915ZM120.645 131.501L128.948 113.328L137.25 131.501H120.645ZM158.892 161.566L150.998 144.329H107.306L99.4114 161.566H106.761L111.797 150.743H146.098L151.134 161.566H158.892Z" fill="#CCFF00"/>
<path d="M210.613 161.566V134.841H215.377C237.427 134.841 255.53 122.414 255.53 100.767C255.53 79.1197 237.427 66.6925 215.377 66.6925H188.563V161.566H195.913V73.1065H215.377C233.208 73.1065 247.772 83.2621 247.772 100.767C247.772 118.272 233.208 128.427 215.377 128.427H203.263V161.566H210.613ZM203.263 122.013H215.377C228.988 122.013 240.013 114.129 240.013 100.767C240.013 87.4044 228.988 79.5205 215.377 79.5205H203.263V122.013ZM215.377 85.9346C224.769 85.9346 232.255 91.5468 232.255 100.767C232.255 109.987 224.769 115.599 215.377 115.599H210.613V85.9346H215.377Z" fill="#CCFF00"/>
<path d="M349.045 161.566L325.906 128.294C335.706 122.414 341.695 112.927 341.695 102.103C341.695 79.3869 323.592 66.6925 300.453 66.6925H273.367V161.566H280.717V73.1065H300.453C319.373 73.1065 333.937 83.5293 333.937 102.103C333.937 111.858 328.356 121.345 316.378 126.289L340.878 161.566H349.045ZM324.545 161.566H332.712L306.034 123.35C319.237 121.078 326.178 112.259 326.178 102.103C326.178 87.6717 315.153 79.5205 300.453 79.5205H288.067V161.566H295.417V119.742L324.545 161.566ZM300.453 85.9346C310.934 85.9346 318.42 91.8141 318.42 102.103C318.42 111.858 311.887 118.406 299.501 118.406H295.417V85.9346H300.453Z" fill="#CCFF00"/>
<path d="M372.3 161.566V66.6925H364.95V161.566H372.3ZM387 161.566V66.6925H379.65V161.566H387Z" fill="#CCFF00"/>
<path fill-rule="evenodd" clip-rule="evenodd" d="M375.5 49.9699C389.156 49.9699 400.227 39.1709 400.227 25.8498C400.227 12.5287 389.156 1.72972 375.5 1.72972C361.844 1.72972 350.773 12.5287 350.773 25.8498C350.773 39.1709 361.844 49.9699 375.5 49.9699ZM375.5 51.6996C390.135 51.6996 402 40.1262 402 25.8498C402 11.5734 390.135 0 375.5 0C360.865 0 349 11.5734 349 25.8498C349 40.1262 360.865 51.6996 375.5 51.6996Z" fill="#CCFF00"/>
<path d="M357.61 17.2001L358.068 16.5445H363.114L364.083 15.9896L364.542 16.5445H366.886L367.396 17.1496H372.034L373.41 18.461H374.43L374.99 17.9566H376.316L379.119 20.3271H380.597L381.056 20.882H386.306L391.555 16.5445H392.371L392.779 17.1496H393.798L394.308 19.3184L395.99 20.5793V21.8907L394.97 22.3446L394.308 23.9081L393.798 23.4037L392.779 24.6142H391.963L391.199 26.1778L391.555 27.9934L390.485 29.4056L388.65 30.1117V31.3222H386.713L385.133 29.91L384.827 28.9013H380.597L380.189 29.4056H377.794L377.488 30.1117H376.316L375.653 31.6248L374.43 32.5326H372.442L370.25 34.3988L369.689 33.7935L368.772 33.1883H364.898L364.542 33.7935L362.197 34.3988L361.636 35.0545L361.28 34.3988H360.26L358.323 35.7101H356.03L355.775 35.3066L357.355 32.5326L357.1 31.9779L356.03 32.5326L355.01 31.6248V30.9691L356.234 29.7083L355.775 27.9934L356.234 26.6821L355.469 26.2282L356.234 25.2699H357.1L358.323 24.3116L358.068 22.6976H357.1L356.234 21.6889L355.775 19.2175L356.488 17.2001H357.61Z" fill="#CCFF00"/>
</svg>
